<?xml version="1.0" encoding="UTF-8"?><svg id="Layer_2" xmlns="http://www.w3.org/2000/svg" width="88.19mm" height="63.5mm" viewBox="0 0 250 180"><defs><style>.cls-1{fill:#17672f;}.cls-2{fill:#005333;}.cls-3{fill:#1a1449;}.cls-4{fill:#1d1a55;}.cls-5{fill:#00571f;}.cls-6{fill:#19255b;}.cls-7{fill:#005722;}.cls-8{fill:#fff9d7;}.cls-9{fill:#063;}.cls-10{fill:#005326;}</style></defs><g id="Layer_35"><g><rect class="cls-6" x="0" width="249.87" height="180"/><ellipse class="cls-8" cx="188.72" cy="54.92" rx="54.12" ry="52.09"/><polygon class="cls-4" points="178.78 170.05 77.21 171.73 126.21 12.89 178.78 170.05"/><polygon class="cls-3" points="219.54 179.99 132.39 180 176.03 49.91 219.54 179.99"/><polygon class="cls-3" points="240.4 165.08 168.06 166.28 211.94 33.24 240.29 113.29 240.4 165.08"/><polygon class="cls-4" points="107.94 148.24 6.37 149.93 54.27 10.78 107.94 148.24"/><polygon class="cls-4" points="50.78 156.15 .47 125.05 0 0 50.78 156.15"/><polygon class="cls-2" points="210.81 180 102.62 180 151.35 26.45 210.81 180"/><polygon class="cls-10" points="89.36 180 0 179.99 0 122.75 31.57 11.21 89.36 180"/><polygon class="cls-10" points="233.71 180 147.15 180 189.76 41.86 233.71 180"/><polygon class="cls-7" points="250 179.99 189.31 180 231.32 31.59 249.81 91.52 250 179.99"/><polygon class="cls-5" points="177.08 180 81.95 179.82 124.51 50.95 177.08 180"/><polygon class="cls-1" points="57.15 179.87 4.63 180 30.87 120.19 57.15 179.87"/><polygon class="cls-9" points="138.23 179.62 32.98 180 86.83 .21 138.23 179.62"/><polygon class="cls-1" points="213.96 179.99 171.1 180 192.36 120.65 213.96 179.99"/></g></g></svg>